<?xml version="1.0" standalone="yes"?>
<!-- SVG graphic -->
<svg xmlns='http://www.w3.org/2000/svg' xmlns:xlink='http://www.w3.org/1999/xlink'
 version="1.1">
<rect x="0" y="0" width="6" height="200" stroke="black" stroke-width="1" fill="blue" tooltip="enable"><title>(0,250)</title></rect><rect x="6" y="88" width="6" height="112" stroke="black" stroke-width="1" fill="blue" tooltip="enable"><title>(0.038359,140)</title></rect><rect x="12" y="140.8" width="6" height="59.2" stroke="black" stroke-width="1" fill="blue" tooltip="enable"><title>(0.0767181,74)</title></rect><rect x="18" y="160" width="6" height="40" stroke="black" stroke-width="1" fill="blue" tooltip="enable"><title>(0.115077,50)</title></rect><rect x="24" y="165.6" width="6" height="34.4" stroke="black" stroke-width="1" fill="blue" tooltip="enable"><title>(0.153436,43)</title></rect><rect x="30" y="174.4" width="6" height="25.6" stroke="black" stroke-width="1" fill="blue" tooltip="enable"><title>(0.191795,32)</title></rect><rect x="36" y="170.4" width="6" height="29.6" stroke="black" stroke-width="1" fill="blue" tooltip="enable"><title>(0.230154,37)</title></rect><rect x="42" y="176" width="6" height="24" stroke="black" stroke-width="1" fill="blue" tooltip="enable"><title>(0.268513,30)</title></rect><rect x="48" y="180.8" width="6" height="19.2" stroke="black" stroke-width="1" fill="blue" tooltip="enable"><title>(0.306872,24)</title></rect><rect x="54" y="185.6" width="6" height="14.4" stroke="black" stroke-width="1" fill="blue" tooltip="enable"><title>(0.345231,18)</title></rect><rect x="60" y="188" width="6" height="12" stroke="black" stroke-width="1" fill="blue" tooltip="enable"><title>(0.38359,15)</title></rect><rect x="66" y="184" width="6" height="16" stroke="black" stroke-width="1" fill="blue" tooltip="enable"><title>(0.421949,20)</title></rect><rect x="72" y="184.8" width="6" height="15.2" stroke="black" stroke-width="1" fill="blue" tooltip="enable"><title>(0.460308,19)</title></rect><rect x="78" y="190.4" width="6" height="9.6" stroke="black" stroke-width="1" fill="blue" tooltip="enable"><title>(0.498667,12)</title></rect><rect x="84" y="188" width="6" height="12" stroke="black" stroke-width="1" fill="blue" tooltip="enable"><title>(0.537027,15)</title></rect><rect x="90" y="192" width="6" height="8" stroke="black" stroke-width="1" fill="blue" tooltip="enable"><title>(0.575386,10)</title></rect><rect x="96" y="189.6" width="6" height="10.4" stroke="black" stroke-width="1" fill="blue" tooltip="enable"><title>(0.613745,13)</title></rect><rect x="102" y="191.2" width="6" height="8.8" stroke="black" stroke-width="1" fill="blue" tooltip="enable"><title>(0.652104,11)</title></rect><rect x="108" y="188.8" width="6" height="11.2" stroke="black" stroke-width="1" fill="blue" tooltip="enable"><title>(0.690463,14)</title></rect><rect x="114" y="191.2" width="6" height="8.8" stroke="black" stroke-width="1" fill="blue" tooltip="enable"><title>(0.728822,11)</title></rect><rect x="120" y="191.2" width="6" height="8.8" stroke="black" stroke-width="1" fill="blue" tooltip="enable"><title>(0.767181,11)</title></rect><rect x="126" y="185.6" width="6" height="14.4" stroke="black" stroke-width="1" fill="blue" tooltip="enable"><title>(0.80554,18)</title></rect><rect x="132" y="192" width="6" height="8" stroke="black" stroke-width="1" fill="blue" tooltip="enable"><title>(0.843899,10)</title></rect><rect x="138" y="190.4" width="6" height="9.6" stroke="black" stroke-width="1" fill="blue" tooltip="enable"><title>(0.882258,12)</title></rect><rect x="144" y="192" width="6" height="8" stroke="black" stroke-width="1" fill="blue" tooltip="enable"><title>(0.920617,10)</title></rect><rect x="150" y="192" width="6" height="8" stroke="black" stroke-width="1" fill="blue" tooltip="enable"><title>(0.958976,10)</title></rect><rect x="156" y="195.2" width="6" height="4.8" stroke="black" stroke-width="1" fill="blue" tooltip="enable"><title>(0.997335,6)</title></rect><rect x="162" y="192.8" width="6" height="7.2" stroke="black" stroke-width="1" fill="blue" tooltip="enable"><title>(1.03569,9)</title></rect><rect x="168" y="191.2" width="6" height="8.8" stroke="black" stroke-width="1" fill="blue" tooltip="enable"><title>(1.07405,11)</title></rect><rect x="174" y="192" width="6" height="8" stroke="black" stroke-width="1" fill="blue" tooltip="enable"><title>(1.11241,10)</title></rect><rect x="180" y="192.8" width="6" height="7.2" stroke="black" stroke-width="1" fill="blue" tooltip="enable"><title>(1.15077,9)</title></rect><rect x="186" y="195.2" width="6" height="4.8" stroke="black" stroke-width="1" fill="blue" tooltip="enable"><title>(1.18913,6)</title></rect><rect x="192" y="192" width="6" height="8" stroke="black" stroke-width="1" fill="blue" tooltip="enable"><title>(1.22749,10)</title></rect><rect x="198" y="187.2" width="6" height="12.8" stroke="black" stroke-width="1" fill="blue" tooltip="enable"><title>(1.26585,16)</title></rect><rect x="204" y="192.8" width="6" height="7.2" stroke="black" stroke-width="1" fill="blue" tooltip="enable"><title>(1.30421,9)</title></rect><rect x="210" y="195.2" width="6" height="4.8" stroke="black" stroke-width="1" fill="blue" tooltip="enable"><title>(1.34257,6)</title></rect><rect x="216" y="193.6" width="6" height="6.4" stroke="black" stroke-width="1" fill="blue" tooltip="enable"><title>(1.38093,8)</title></rect><rect x="222" y="195.2" width="6" height="4.8" stroke="black" stroke-width="1" fill="blue" tooltip="enable"><title>(1.41928,6)</title></rect><rect x="228" y="192" width="6" height="8" stroke="black" stroke-width="1" fill="blue" tooltip="enable"><title>(1.45764,10)</title></rect><rect x="234" y="188" width="6" height="12" stroke="black" stroke-width="1" fill="blue" tooltip="enable"><title>(1.496,15)</title></rect><rect x="240" y="192" width="6" height="8" stroke="black" stroke-width="1" fill="blue" tooltip="enable"><title>(1.53436,10)</title></rect><rect x="246" y="194.4" width="6" height="5.6" stroke="black" stroke-width="1" fill="blue" tooltip="enable"><title>(1.57272,7)</title></rect><rect x="252" y="197.6" width="6" height="2.4" stroke="black" stroke-width="1" fill="blue" tooltip="enable"><title>(1.61108,3)</title></rect><rect x="258" y="195.2" width="6" height="4.8" stroke="black" stroke-width="1" fill="blue" tooltip="enable"><title>(1.64944,6)</title></rect><rect x="264" y="193.6" width="6" height="6.4" stroke="black" stroke-width="1" fill="blue" tooltip="enable"><title>(1.6878,8)</title></rect><rect x="270" y="195.2" width="6" height="4.8" stroke="black" stroke-width="1" fill="blue" tooltip="enable"><title>(1.72616,6)</title></rect><rect x="276" y="195.2" width="6" height="4.8" stroke="black" stroke-width="1" fill="blue" tooltip="enable"><title>(1.76452,6)</title></rect><rect x="282" y="194.4" width="6" height="5.6" stroke="black" stroke-width="1" fill="blue" tooltip="enable"><title>(1.80287,7)</title></rect><rect x="288" y="189.6" width="6" height="10.4" stroke="black" stroke-width="1" fill="blue" tooltip="enable"><title>(1.84123,13)</title></rect><rect x="294" y="193.6" width="6" height="6.4" stroke="black" stroke-width="1" fill="blue" tooltip="enable"><title>(1.87959,8)</title></rect><rect x="300" y="188" width="6" height="12" stroke="black" stroke-width="1" fill="blue" tooltip="enable"><title>(1.91795,15)</title></rect><rect x="306" y="192" width="6" height="8" stroke="black" stroke-width="1" fill="blue" tooltip="enable"><title>(1.95631,10)</title></rect><rect x="312" y="191.2" width="6" height="8.8" stroke="black" stroke-width="1" fill="blue" tooltip="enable"><title>(1.99467,11)</title></rect><rect x="318" y="195.2" width="6" height="4.8" stroke="black" stroke-width="1" fill="blue" tooltip="enable"><title>(2.03303,6)</title></rect><rect x="324" y="191.2" width="6" height="8.8" stroke="black" stroke-width="1" fill="blue" tooltip="enable"><title>(2.07139,11)</title></rect><rect x="330" y="194.4" width="6" height="5.6" stroke="black" stroke-width="1" fill="blue" tooltip="enable"><title>(2.10975,7)</title></rect><rect x="336" y="191.2" width="6" height="8.8" stroke="black" stroke-width="1" fill="blue" tooltip="enable"><title>(2.14811,11)</title></rect><rect x="342" y="190.4" width="6" height="9.6" stroke="black" stroke-width="1" fill="blue" tooltip="enable"><title>(2.18647,12)</title></rect><rect x="348" y="194.4" width="6" height="5.6" stroke="black" stroke-width="1" fill="blue" tooltip="enable"><title>(2.22482,7)</title></rect><rect x="354" y="195.2" width="6" height="4.8" stroke="black" stroke-width="1" fill="blue" tooltip="enable"><title>(2.26318,6)</title></rect><rect x="360" y="195.2" width="6" height="4.8" stroke="black" stroke-width="1" fill="blue" tooltip="enable"><title>(2.30154,6)</title></rect><rect x="366" y="195.2" width="6" height="4.8" stroke="black" stroke-width="1" fill="blue" tooltip="enable"><title>(2.3399,6)</title></rect><rect x="372" y="196.8" width="6" height="3.2" stroke="black" stroke-width="1" fill="blue" tooltip="enable"><title>(2.37826,4)</title></rect><rect x="378" y="198.4" width="6" height="1.6" stroke="black" stroke-width="1" fill="blue" tooltip="enable"><title>(2.41662,2)</title></rect><rect x="384" y="194.4" width="6" height="5.6" stroke="black" stroke-width="1" fill="blue" tooltip="enable"><title>(2.45498,7)</title></rect><rect x="390" y="196" width="6" height="4" stroke="black" stroke-width="1" fill="blue" tooltip="enable"><title>(2.49334,5)</title></rect><rect x="396" y="193.6" width="6" height="6.4" stroke="black" stroke-width="1" fill="blue" tooltip="enable"><title>(2.5317,8)</title></rect><rect x="402" y="195.2" width="6" height="4.8" stroke="black" stroke-width="1" fill="blue" tooltip="enable"><title>(2.57006,6)</title></rect><rect x="408" y="194.4" width="6" height="5.6" stroke="black" stroke-width="1" fill="blue" tooltip="enable"><title>(2.60841,7)</title></rect><rect x="414" y="196" width="6" height="4" stroke="black" stroke-width="1" fill="blue" tooltip="enable"><title>(2.64677,5)</title></rect><rect x="420" y="195.2" width="6" height="4.8" stroke="black" stroke-width="1" fill="blue" tooltip="enable"><title>(2.68513,6)</title></rect><rect x="426" y="197.6" width="6" height="2.4" stroke="black" stroke-width="1" fill="blue" tooltip="enable"><title>(2.72349,3)</title></rect><rect x="432" y="193.6" width="6" height="6.4" stroke="black" stroke-width="1" fill="blue" tooltip="enable"><title>(2.76185,8)</title></rect><rect x="438" y="196" width="6" height="4" stroke="black" stroke-width="1" fill="blue" tooltip="enable"><title>(2.80021,5)</title></rect><rect x="444" y="196" width="6" height="4" stroke="black" stroke-width="1" fill="blue" tooltip="enable"><title>(2.83857,5)</title></rect><rect x="450" y="192.8" width="6" height="7.2" stroke="black" stroke-width="1" fill="blue" tooltip="enable"><title>(2.87693,9)</title></rect><rect x="456" y="195.2" width="6" height="4.8" stroke="black" stroke-width="1" fill="blue" tooltip="enable"><title>(2.91529,6)</title></rect><rect x="462" y="192.8" width="6" height="7.2" stroke="black" stroke-width="1" fill="blue" tooltip="enable"><title>(2.95365,9)</title></rect><rect x="468" y="192.8" width="6" height="7.2" stroke="black" stroke-width="1" fill="blue" tooltip="enable"><title>(2.992,9)</title></rect><rect x="474" y="196.8" width="6" height="3.2" stroke="black" stroke-width="1" fill="blue" tooltip="enable"><title>(3.03036,4)</title></rect><rect x="480" y="194.4" width="6" height="5.6" stroke="black" stroke-width="1" fill="blue" tooltip="enable"><title>(3.06872,7)</title></rect><rect x="486" y="194.4" width="6" height="5.6" stroke="black" stroke-width="1" fill="blue" tooltip="enable"><title>(3.10708,7)</title></rect><rect x="492" y="199.2" width="6" height="0.8" stroke="black" stroke-width="1" fill="blue" tooltip="enable"><title>(3.14544,1)</title></rect><rect x="498" y="197.6" width="6" height="2.4" stroke="black" stroke-width="1" fill="blue" tooltip="enable"><title>(3.1838,3)</title></rect><rect x="504" y="199.2" width="6" height="0.8" stroke="black" stroke-width="1" fill="blue" tooltip="enable"><title>(3.22216,1)</title></rect><rect x="510" y="196" width="6" height="4" stroke="black" stroke-width="1" fill="blue" tooltip="enable"><title>(3.26052,5)</title></rect><rect x="516" y="197.6" width="6" height="2.4" stroke="black" stroke-width="1" fill="blue" tooltip="enable"><title>(3.29888,3)</title></rect><rect x="522" y="196.8" width="6" height="3.2" stroke="black" stroke-width="1" fill="blue" tooltip="enable"><title>(3.33724,4)</title></rect><rect x="528" y="198.4" width="6" height="1.6" stroke="black" stroke-width="1" fill="blue" tooltip="enable"><title>(3.3756,2)</title></rect><rect x="534" y="199.2" width="6" height="0.8" stroke="black" stroke-width="1" fill="blue" tooltip="enable"><title>(3.41395,1)</title></rect><rect x="540" y="197.6" width="6" height="2.4" stroke="black" stroke-width="1" fill="blue" tooltip="enable"><title>(3.45231,3)</title></rect><rect x="546" y="198.4" width="6" height="1.6" stroke="black" stroke-width="1" fill="blue" tooltip="enable"><title>(3.49067,2)</title></rect><rect x="552" y="197.6" width="6" height="2.4" stroke="black" stroke-width="1" fill="blue" tooltip="enable"><title>(3.52903,3)</title></rect><rect x="558" y="197.6" width="6" height="2.4" stroke="black" stroke-width="1" fill="blue" tooltip="enable"><title>(3.56739,3)</title></rect><rect x="564" y="200" width="6" height="0" stroke="black" stroke-width="1" fill="blue" tooltip="enable"><title>(3.60575,0)</title></rect><rect x="570" y="198.4" width="6" height="1.6" stroke="black" stroke-width="1" fill="blue" tooltip="enable"><title>(3.64411,2)</title></rect><rect x="576" y="197.6" width="6" height="2.4" stroke="black" stroke-width="1" fill="blue" tooltip="enable"><title>(3.68247,3)</title></rect><rect x="582" y="199.2" width="6" height="0.8" stroke="black" stroke-width="1" fill="blue" tooltip="enable"><title>(3.72083,1)</title></rect><rect x="588" y="200" width="6" height="0" stroke="black" stroke-width="1" fill="blue" tooltip="enable"><title>(3.75919,0)</title></rect><rect x="594" y="197.6" width="6" height="2.4" stroke="black" stroke-width="1" fill="blue" tooltip="enable"><title>(3.79754,3)</title></rect><text x="30" y="240" font-size="20" fill="black">0</text>
<text x="600" y="240" font-size="20" fill="black">3.8359</text>
<polyline points="0,220,600,220" stroke="black" stroke-width="1" fill="none"/>
<text x="720" y="20" font-size="20" fill="black">250</text>
<text x="720" y="200" font-size="20" fill="black">0</text>
<polyline points="660,0,660,200" stroke="black" stroke-width="1" fill="none"/>
</svg>